<mxfile host="app.diagrams.net" modified="2022-04-22T00:31:57.846Z" agent="5.0 (X11)" etag="F9lmBf3kQEYDuIop2PAI" version="17.4.5" type="github">
  <diagram id="0WsAM_WMDWSk5i0kJ9NH" name="Page-1">
    <mxGraphModel dx="3004" dy="913" grid="1" gridSize="10" guides="1" tooltips="1" connect="1" arrows="0" fold="1" page="1" pageScale="1" pageWidth="1654" pageHeight="2336" math="0" shadow="0">
      <root>
        <mxCell id="0" />
        <mxCell id="1" parent="0" />
        <mxCell id="G9HL7FKv6nedQ7dIaKoP-1" value="IDLE" style="ellipse;whiteSpace=wrap;html=1;" parent="1" vertex="1">
          <mxGeometry x="-910" y="160" width="160" height="120" as="geometry" />
        </mxCell>
        <mxCell id="G9HL7FKv6nedQ7dIaKoP-4" value="~Rd&amp;amp;~Wr" style="text;html=1;align=center;verticalAlign=middle;resizable=0;points=[];autosize=1;strokeColor=none;fillColor=none;" parent="1" vertex="1">
          <mxGeometry x="-905" y="115" width="70" height="20" as="geometry" />
        </mxCell>
        <mxCell id="G9HL7FKv6nedQ7dIaKoP-5" value="" style="curved=1;endArrow=classic;html=1;rounded=0;entryX=0.396;entryY=-0.006;entryDx=0;entryDy=0;entryPerimeter=0;" parent="1" edge="1">
          <mxGeometry width="50" height="50" relative="1" as="geometry">
            <mxPoint x="-906.5640235470282" y="191.7179882264859" as="sourcePoint" />
            <mxPoint x="-856.6400000000003" y="164.27999999999997" as="targetPoint" />
            <Array as="points">
              <mxPoint x="-920" y="185" />
              <mxPoint x="-920" y="115" />
            </Array>
          </mxGeometry>
        </mxCell>
        <mxCell id="G9HL7FKv6nedQ7dIaKoP-6" value="COMPARE_TAGS_Rd&lt;br&gt;&lt;br&gt;comp = 1,&lt;br&gt;cache_wr(Write) = 0&lt;br&gt;vimtimway = ~victimway" style="ellipse;whiteSpace=wrap;html=1;" parent="1" vertex="1">
          <mxGeometry x="-1115" y="320" width="160" height="120" as="geometry" />
        </mxCell>
        <mxCell id="G9HL7FKv6nedQ7dIaKoP-7" value="COMPARE_TAGS_Wr&lt;br&gt;&lt;br&gt;comp = 1,&lt;br&gt;cache_wr(Write) =1;&lt;br&gt;vimtimway = ~victimway" style="ellipse;whiteSpace=wrap;html=1;" parent="1" vertex="1">
          <mxGeometry x="-720" y="323.84" width="160" height="120" as="geometry" />
        </mxCell>
        <mxCell id="G9HL7FKv6nedQ7dIaKoP-8" value="" style="endArrow=classic;html=1;rounded=0;exitX=0.052;exitY=0.767;exitDx=0;exitDy=0;exitPerimeter=0;" parent="1" source="G9HL7FKv6nedQ7dIaKoP-1" target="G9HL7FKv6nedQ7dIaKoP-6" edge="1">
          <mxGeometry width="50" height="50" relative="1" as="geometry">
            <mxPoint x="-910" y="280" as="sourcePoint" />
            <mxPoint x="-1100.08" y="380" as="targetPoint" />
          </mxGeometry>
        </mxCell>
        <mxCell id="G9HL7FKv6nedQ7dIaKoP-9" value="Rd &amp;amp;~Wr&amp;amp; ~stall_out" style="text;html=1;align=center;verticalAlign=middle;resizable=0;points=[];autosize=1;strokeColor=none;fillColor=none;" parent="1" vertex="1">
          <mxGeometry x="-1040" y="271" width="130" height="20" as="geometry" />
        </mxCell>
        <mxCell id="G9HL7FKv6nedQ7dIaKoP-10" value="" style="endArrow=classic;html=1;rounded=0;exitX=0.904;exitY=0.191;exitDx=0;exitDy=0;exitPerimeter=0;" parent="1" source="G9HL7FKv6nedQ7dIaKoP-6" target="G9HL7FKv6nedQ7dIaKoP-82" edge="1">
          <mxGeometry width="50" height="50" relative="1" as="geometry">
            <mxPoint x="-930" y="410" as="sourcePoint" />
            <mxPoint x="-880" y="360" as="targetPoint" />
          </mxGeometry>
        </mxCell>
        <mxCell id="G9HL7FKv6nedQ7dIaKoP-14" value="" style="endArrow=classic;html=1;rounded=0;exitX=0.813;exitY=0.917;exitDx=0;exitDy=0;exitPerimeter=0;entryX=0;entryY=0;entryDx=0;entryDy=0;" parent="1" source="G9HL7FKv6nedQ7dIaKoP-1" target="G9HL7FKv6nedQ7dIaKoP-7" edge="1">
          <mxGeometry width="50" height="50" relative="1" as="geometry">
            <mxPoint x="-531.1200000000001" y="259.12000000000006" as="sourcePoint" />
            <mxPoint x="-720.0031655211501" y="439.90744801636464" as="targetPoint" />
          </mxGeometry>
        </mxCell>
        <mxCell id="G9HL7FKv6nedQ7dIaKoP-15" value="~Rd &amp;amp;Wr&amp;amp; ~stall_out" style="text;html=1;align=center;verticalAlign=middle;resizable=0;points=[];autosize=1;strokeColor=none;fillColor=none;" parent="1" vertex="1">
          <mxGeometry x="-800" y="270" width="130" height="20" as="geometry" />
        </mxCell>
        <mxCell id="G9HL7FKv6nedQ7dIaKoP-16" value="" style="endArrow=classic;html=1;rounded=0;startArrow=none;" parent="1" source="MkebhDBpNGItt_J_HD5r-84" target="G9HL7FKv6nedQ7dIaKoP-82" edge="1">
          <mxGeometry width="50" height="50" relative="1" as="geometry">
            <mxPoint x="-704.8000000000002" y="450.00000000000006" as="sourcePoint" />
            <mxPoint x="-680" y="260" as="targetPoint" />
          </mxGeometry>
        </mxCell>
        <mxCell id="G9HL7FKv6nedQ7dIaKoP-18" value="ALLOC_0&lt;br&gt;&lt;br&gt;&lt;div style=&quot;text-align: left&quot;&gt;&lt;br&gt;&lt;/div&gt;&lt;blockquote style=&quot;margin: 0 0 0 40px ; border: none ; padding: 0px&quot;&gt;&lt;span&gt;&lt;div style=&quot;text-align: left&quot;&gt;&lt;span&gt;mem_rd = 1&lt;/span&gt;&lt;/div&gt;&lt;/span&gt;&lt;span&gt;&lt;div style=&quot;text-align: left&quot;&gt;&lt;span&gt;mem_offset = 3&#39;b000&lt;/span&gt;&lt;/div&gt;&lt;div style=&quot;text-align: left&quot;&gt;&lt;div&gt;&lt;br&gt;&lt;/div&gt;&lt;/div&gt;&lt;/span&gt;&lt;/blockquote&gt;&lt;div style=&quot;text-align: left&quot;&gt;&lt;br&gt;&lt;/div&gt;" style="ellipse;whiteSpace=wrap;html=1;" parent="1" vertex="1">
          <mxGeometry x="-1320" y="480" width="280" height="210" as="geometry" />
        </mxCell>
        <mxCell id="G9HL7FKv6nedQ7dIaKoP-22" value="" style="endArrow=classic;html=1;rounded=0;exitX=0.183;exitY=0.913;exitDx=0;exitDy=0;exitPerimeter=0;" parent="1" source="G9HL7FKv6nedQ7dIaKoP-6" edge="1">
          <mxGeometry width="50" height="50" relative="1" as="geometry">
            <mxPoint x="-1360" y="440" as="sourcePoint" />
            <mxPoint x="-1130" y="490" as="targetPoint" />
          </mxGeometry>
        </mxCell>
        <mxCell id="G9HL7FKv6nedQ7dIaKoP-25" value="stall" style="text;html=1;align=center;verticalAlign=middle;resizable=0;points=[];autosize=1;strokeColor=none;fillColor=none;" parent="1" vertex="1">
          <mxGeometry x="-1330" y="447.6799999999999" width="40" height="20" as="geometry" />
        </mxCell>
        <mxCell id="G9HL7FKv6nedQ7dIaKoP-26" value="" style="curved=1;endArrow=classic;html=1;rounded=0;" parent="1" source="G9HL7FKv6nedQ7dIaKoP-18" target="G9HL7FKv6nedQ7dIaKoP-18" edge="1">
          <mxGeometry width="50" height="50" relative="1" as="geometry">
            <mxPoint x="-1337" y="520" as="sourcePoint" />
            <mxPoint x="-1286.6400000000003" y="493.11999999999995" as="targetPoint" />
            <Array as="points">
              <mxPoint x="-1350" y="513.84" />
              <mxPoint x="-1350" y="443.84" />
            </Array>
          </mxGeometry>
        </mxCell>
        <mxCell id="G9HL7FKv6nedQ7dIaKoP-27" value="" style="endArrow=classic;html=1;rounded=0;exitX=0.183;exitY=0.913;exitDx=0;exitDy=0;exitPerimeter=0;" parent="1" edge="1">
          <mxGeometry width="50" height="50" relative="1" as="geometry">
            <mxPoint x="-685.7199999999998" y="429.99999999999994" as="sourcePoint" />
            <mxPoint x="-1070" y="530" as="targetPoint" />
          </mxGeometry>
        </mxCell>
        <mxCell id="G9HL7FKv6nedQ7dIaKoP-38" value="WB_0&lt;br&gt;&lt;br&gt;mem_wr = 1&lt;br&gt;tag_select = 1&#39;b1&lt;br&gt;&lt;span style=&quot;color: rgba(0 , 0 , 0 , 0) ; font-family: monospace ; font-size: 0px&quot;&gt;%3CmxGraphModel%3E%3Croot%3E%3CmxCell%20id%3D%220%22%2F%3E%3CmxCell%20id%3D%221%22%20parent%3D%220%22%2F%3E%3CmxCell%20id%3D%222%22%20value%3D%22tag_select%22%20style%3D%22text%3Bhtml%3D1%3Balign%3Dcenter%3BverticalAlign%3Dmiddle%3Bresizable%3D0%3Bpoints%3D%5B%5D%3Bautosize%3D1%3BstrokeColor%3Dnone%3BfillColor%3Dnone%3B%22%20vertex%3D%221%22%20parent%3D%221%22%3E%3CmxGeometry%20x%3D%222430%22%20y%3D%22310%22%20width%3D%2270%22%20height%3D%2220%22%20as%3D%22geometry%22%2F%3E%3C%2FmxCell%3E%3C%2Froot%3E%3C%2FmxGraphModel%3E&lt;/span&gt;mem_offset = 3&#39;b000&lt;div&gt;cache_offset = 3&#39;b000&lt;/div&gt;cache_offset_select = 1&#39;b1" style="ellipse;whiteSpace=wrap;html=1;" parent="1" vertex="1">
          <mxGeometry x="-450" y="415.86" width="160" height="120" as="geometry" />
        </mxCell>
        <mxCell id="G9HL7FKv6nedQ7dIaKoP-39" value="stall" style="text;html=1;align=center;verticalAlign=middle;resizable=0;points=[];autosize=1;strokeColor=none;fillColor=none;" parent="1" vertex="1">
          <mxGeometry x="-255" y="384.14" width="40" height="20" as="geometry" />
        </mxCell>
        <mxCell id="G9HL7FKv6nedQ7dIaKoP-41" value="" style="curved=1;endArrow=classic;html=1;rounded=0;exitX=0.945;exitY=0.297;exitDx=0;exitDy=0;exitPerimeter=0;entryX=0.722;entryY=0.065;entryDx=0;entryDy=0;entryPerimeter=0;" parent="1" source="G9HL7FKv6nedQ7dIaKoP-38" target="G9HL7FKv6nedQ7dIaKoP-38" edge="1">
          <mxGeometry width="50" height="50" relative="1" as="geometry">
            <mxPoint x="-270" y="434.13999999999993" as="sourcePoint" />
            <mxPoint x="-220" y="384.14" as="targetPoint" />
            <Array as="points">
              <mxPoint x="-220" y="434.13999999999993" />
              <mxPoint x="-270" y="384.14" />
            </Array>
          </mxGeometry>
        </mxCell>
        <mxCell id="G9HL7FKv6nedQ7dIaKoP-42" value="WB_1&lt;br&gt;&lt;br&gt;mem_wr = 1&lt;br&gt;tag_select = 1&#39;b1&lt;br&gt;&lt;div&gt;mem_offset = 3&#39;b010&lt;div&gt;cache_offset = 3&#39;b010&lt;/div&gt;cache_offset_select = 1&#39;b1&lt;/div&gt;" style="ellipse;whiteSpace=wrap;html=1;" parent="1" vertex="1">
          <mxGeometry x="-220" y="570" width="160" height="120" as="geometry" />
        </mxCell>
        <mxCell id="G9HL7FKv6nedQ7dIaKoP-43" value="stall" style="text;html=1;align=center;verticalAlign=middle;resizable=0;points=[];autosize=1;strokeColor=none;fillColor=none;" parent="1" vertex="1">
          <mxGeometry x="-25" y="538.28" width="40" height="20" as="geometry" />
        </mxCell>
        <mxCell id="G9HL7FKv6nedQ7dIaKoP-44" value="" style="curved=1;endArrow=classic;html=1;rounded=0;exitX=0.945;exitY=0.297;exitDx=0;exitDy=0;exitPerimeter=0;entryX=0.722;entryY=0.065;entryDx=0;entryDy=0;entryPerimeter=0;" parent="1" source="G9HL7FKv6nedQ7dIaKoP-42" target="G9HL7FKv6nedQ7dIaKoP-42" edge="1">
          <mxGeometry width="50" height="50" relative="1" as="geometry">
            <mxPoint x="-40" y="588.28" as="sourcePoint" />
            <mxPoint x="10" y="538.28" as="targetPoint" />
            <Array as="points">
              <mxPoint x="10" y="588.28" />
              <mxPoint x="-40" y="538.28" />
            </Array>
          </mxGeometry>
        </mxCell>
        <mxCell id="G9HL7FKv6nedQ7dIaKoP-45" value="WB_2&lt;br&gt;&lt;br&gt;mem_wr = 1&lt;br&gt;tag_select = 1&#39;b1&lt;br&gt;mem_offset = 3&#39;b100&lt;div&gt;cache_offset = 3&#39;b100&lt;/div&gt;cache_offset_select = 1&#39;b1" style="ellipse;whiteSpace=wrap;html=1;" parent="1" vertex="1">
          <mxGeometry x="-390" y="780" width="160" height="120" as="geometry" />
        </mxCell>
        <mxCell id="G9HL7FKv6nedQ7dIaKoP-46" value="stall" style="text;html=1;align=center;verticalAlign=middle;resizable=0;points=[];autosize=1;strokeColor=none;fillColor=none;" parent="1" vertex="1">
          <mxGeometry x="-195" y="748.28" width="40" height="20" as="geometry" />
        </mxCell>
        <mxCell id="G9HL7FKv6nedQ7dIaKoP-47" value="" style="curved=1;endArrow=classic;html=1;rounded=0;exitX=0.945;exitY=0.297;exitDx=0;exitDy=0;exitPerimeter=0;entryX=0.722;entryY=0.065;entryDx=0;entryDy=0;entryPerimeter=0;" parent="1" source="G9HL7FKv6nedQ7dIaKoP-45" target="G9HL7FKv6nedQ7dIaKoP-45" edge="1">
          <mxGeometry width="50" height="50" relative="1" as="geometry">
            <mxPoint x="-210" y="798.28" as="sourcePoint" />
            <mxPoint x="-160" y="748.28" as="targetPoint" />
            <Array as="points">
              <mxPoint x="-160" y="798.28" />
              <mxPoint x="-210" y="748.28" />
            </Array>
          </mxGeometry>
        </mxCell>
        <mxCell id="G9HL7FKv6nedQ7dIaKoP-48" value="WB_3&lt;br&gt;&lt;br&gt;mem_wr = 1&lt;br&gt;tag_select = 1&#39;b1&lt;br&gt;&lt;div&gt;mem_offset = 3&#39;b110&lt;div&gt;cache_offset = 3&#39;b110&lt;/div&gt;cache_offset_select = 1&#39;b1&lt;/div&gt;" style="ellipse;whiteSpace=wrap;html=1;" parent="1" vertex="1">
          <mxGeometry x="-740" y="791.72" width="160" height="120" as="geometry" />
        </mxCell>
        <mxCell id="G9HL7FKv6nedQ7dIaKoP-49" value="stall" style="text;html=1;align=center;verticalAlign=middle;resizable=0;points=[];autosize=1;strokeColor=none;fillColor=none;" parent="1" vertex="1">
          <mxGeometry x="-545" y="760" width="40" height="20" as="geometry" />
        </mxCell>
        <mxCell id="G9HL7FKv6nedQ7dIaKoP-50" value="" style="curved=1;endArrow=classic;html=1;rounded=0;exitX=0.945;exitY=0.297;exitDx=0;exitDy=0;exitPerimeter=0;entryX=0.722;entryY=0.065;entryDx=0;entryDy=0;entryPerimeter=0;" parent="1" source="G9HL7FKv6nedQ7dIaKoP-48" target="G9HL7FKv6nedQ7dIaKoP-48" edge="1">
          <mxGeometry width="50" height="50" relative="1" as="geometry">
            <mxPoint x="-560" y="810" as="sourcePoint" />
            <mxPoint x="-510" y="760" as="targetPoint" />
            <Array as="points">
              <mxPoint x="-510" y="810" />
              <mxPoint x="-560" y="760" />
            </Array>
          </mxGeometry>
        </mxCell>
        <mxCell id="G9HL7FKv6nedQ7dIaKoP-51" value="" style="endArrow=classic;html=1;rounded=0;entryX=0.019;entryY=0.376;entryDx=0;entryDy=0;entryPerimeter=0;" parent="1" source="G9HL7FKv6nedQ7dIaKoP-7" target="G9HL7FKv6nedQ7dIaKoP-38" edge="1">
          <mxGeometry width="50" height="50" relative="1" as="geometry">
            <mxPoint x="-630" y="540" as="sourcePoint" />
            <mxPoint x="-580" y="490" as="targetPoint" />
          </mxGeometry>
        </mxCell>
        <mxCell id="G9HL7FKv6nedQ7dIaKoP-52" value="" style="endArrow=classic;html=1;rounded=0;exitX=1;exitY=1;exitDx=0;exitDy=0;" parent="1" source="G9HL7FKv6nedQ7dIaKoP-38" target="G9HL7FKv6nedQ7dIaKoP-42" edge="1">
          <mxGeometry width="50" height="50" relative="1" as="geometry">
            <mxPoint x="-390" y="600" as="sourcePoint" />
            <mxPoint x="-340" y="550" as="targetPoint" />
          </mxGeometry>
        </mxCell>
        <mxCell id="G9HL7FKv6nedQ7dIaKoP-53" value="" style="endArrow=classic;html=1;rounded=0;exitX=0.04;exitY=0.769;exitDx=0;exitDy=0;exitPerimeter=0;entryX=0.5;entryY=0;entryDx=0;entryDy=0;" parent="1" source="G9HL7FKv6nedQ7dIaKoP-42" target="G9HL7FKv6nedQ7dIaKoP-45" edge="1">
          <mxGeometry width="50" height="50" relative="1" as="geometry">
            <mxPoint x="-380" y="640" as="sourcePoint" />
            <mxPoint x="-330" y="590" as="targetPoint" />
          </mxGeometry>
        </mxCell>
        <mxCell id="G9HL7FKv6nedQ7dIaKoP-54" value="" style="endArrow=classic;html=1;rounded=0;exitX=-0.006;exitY=0.608;exitDx=0;exitDy=0;exitPerimeter=0;entryX=1.006;entryY=0.633;entryDx=0;entryDy=0;entryPerimeter=0;" parent="1" source="G9HL7FKv6nedQ7dIaKoP-45" target="G9HL7FKv6nedQ7dIaKoP-48" edge="1">
          <mxGeometry width="50" height="50" relative="1" as="geometry">
            <mxPoint x="-490" y="1050" as="sourcePoint" />
            <mxPoint x="-440" y="1000" as="targetPoint" />
          </mxGeometry>
        </mxCell>
        <mxCell id="G9HL7FKv6nedQ7dIaKoP-59" value="" style="endArrow=classic;html=1;rounded=0;exitX=0.975;exitY=0.717;exitDx=0;exitDy=0;exitPerimeter=0;entryX=0.019;entryY=0.643;entryDx=0;entryDy=0;entryPerimeter=0;" parent="1" source="G9HL7FKv6nedQ7dIaKoP-6" target="G9HL7FKv6nedQ7dIaKoP-38" edge="1">
          <mxGeometry width="50" height="50" relative="1" as="geometry">
            <mxPoint x="-680" y="610" as="sourcePoint" />
            <mxPoint x="-630" y="560" as="targetPoint" />
          </mxGeometry>
        </mxCell>
        <mxCell id="G9HL7FKv6nedQ7dIaKoP-62" value="" style="endArrow=classic;html=1;rounded=0;exitX=0;exitY=0;exitDx=0;exitDy=0;" parent="1" source="G9HL7FKv6nedQ7dIaKoP-48" target="G9HL7FKv6nedQ7dIaKoP-18" edge="1">
          <mxGeometry width="50" height="50" relative="1" as="geometry">
            <mxPoint x="-660" y="670" as="sourcePoint" />
            <mxPoint x="-1040" y="650" as="targetPoint" />
          </mxGeometry>
        </mxCell>
        <mxCell id="G9HL7FKv6nedQ7dIaKoP-67" value="ALLOC_1&lt;br&gt;&lt;br&gt;&lt;div style=&quot;text-align: left&quot;&gt;&lt;span style=&quot;text-align: center&quot;&gt;&lt;div style=&quot;text-align: left&quot;&gt;mem_rd = 1&lt;/div&gt;&lt;/span&gt;&lt;span style=&quot;text-align: center&quot;&gt;&lt;div style=&quot;text-align: left&quot;&gt;mem_offset = 3&#39;b010&lt;/div&gt;&lt;/span&gt;&lt;/div&gt;" style="ellipse;whiteSpace=wrap;html=1;" parent="1" vertex="1">
          <mxGeometry x="-1369" y="871" width="260" height="178.84" as="geometry" />
        </mxCell>
        <mxCell id="G9HL7FKv6nedQ7dIaKoP-68" value="stall" style="text;html=1;align=center;verticalAlign=middle;resizable=0;points=[];autosize=1;strokeColor=none;fillColor=none;" parent="1" vertex="1">
          <mxGeometry x="-1330" y="833.8399999999999" width="40" height="20" as="geometry" />
        </mxCell>
        <mxCell id="G9HL7FKv6nedQ7dIaKoP-69" value="" style="curved=1;endArrow=classic;html=1;rounded=0;entryX=0.396;entryY=-0.006;entryDx=0;entryDy=0;entryPerimeter=0;exitX=0.095;exitY=0.192;exitDx=0;exitDy=0;exitPerimeter=0;" parent="1" source="G9HL7FKv6nedQ7dIaKoP-67" edge="1">
          <mxGeometry width="50" height="50" relative="1" as="geometry">
            <mxPoint x="-1337" y="906.1600000000001" as="sourcePoint" />
            <mxPoint x="-1286.6400000000003" y="879.28" as="targetPoint" />
            <Array as="points">
              <mxPoint x="-1350" y="900" />
              <mxPoint x="-1350" y="830" />
            </Array>
          </mxGeometry>
        </mxCell>
        <mxCell id="G9HL7FKv6nedQ7dIaKoP-70" value="ALLOC_2&lt;br&gt;&lt;br&gt;&lt;div style=&quot;text-align: left&quot;&gt;&lt;span style=&quot;text-align: center&quot;&gt;&lt;div style=&quot;text-align: left&quot;&gt;&lt;span style=&quot;white-space: pre&quot;&gt; &lt;/span&gt;&amp;nbsp; &amp;nbsp; mem_rd = 1&lt;/div&gt;&lt;/span&gt;&lt;span style=&quot;text-align: center&quot;&gt;&lt;div style=&quot;text-align: left&quot;&gt;&lt;span&gt; &lt;/span&gt;&lt;span style=&quot;white-space: pre&quot;&gt; &lt;/span&gt;&amp;nbsp; &amp;nbsp; mem_offset = 3&#39;b100&lt;/div&gt;&lt;/span&gt;&lt;/div&gt;&lt;blockquote style=&quot;margin: 0px 0px 0px 40px ; border: none ; padding: 0px&quot;&gt;&lt;div style=&quot;text-align: left&quot;&gt;cache_offset = 3&#39;b000&lt;/div&gt;&lt;div style=&quot;text-align: left&quot;&gt;cache_write = 1&lt;/div&gt;&lt;div style=&quot;text-align: left&quot;&gt;cache_data_in_select = mem&lt;br&gt;&lt;/div&gt;&lt;div style=&quot;text-align: left&quot;&gt;&lt;div style=&quot;font-family: &amp;#34;helvetica&amp;#34;&quot;&gt;&lt;span&gt;cache_offset_select = 1&#39;b1&lt;/span&gt;&lt;br&gt;&lt;/div&gt;&lt;/div&gt;&lt;/blockquote&gt;&lt;div style=&quot;text-align: left&quot;&gt;&lt;br&gt;&lt;/div&gt;" style="ellipse;whiteSpace=wrap;html=1;" parent="1" vertex="1">
          <mxGeometry x="-1060" y="1075" width="250" height="195" as="geometry" />
        </mxCell>
        <mxCell id="G9HL7FKv6nedQ7dIaKoP-71" value="stall" style="text;html=1;align=center;verticalAlign=middle;resizable=0;points=[];autosize=1;strokeColor=none;fillColor=none;" parent="1" vertex="1">
          <mxGeometry x="-910" y="1027.6799999999998" width="40" height="20" as="geometry" />
        </mxCell>
        <mxCell id="G9HL7FKv6nedQ7dIaKoP-72" value="" style="curved=1;endArrow=classic;html=1;rounded=0;exitX=0.095;exitY=0.192;exitDx=0;exitDy=0;exitPerimeter=0;entryX=0.5;entryY=0;entryDx=0;entryDy=0;" parent="1" source="G9HL7FKv6nedQ7dIaKoP-70" target="G9HL7FKv6nedQ7dIaKoP-70" edge="1">
          <mxGeometry width="50" height="50" relative="1" as="geometry">
            <mxPoint x="-917" y="1100" as="sourcePoint" />
            <mxPoint x="-980" y="1073" as="targetPoint" />
            <Array as="points">
              <mxPoint x="-1036" y="1040" />
              <mxPoint x="-930" y="1023.84" />
            </Array>
          </mxGeometry>
        </mxCell>
        <mxCell id="G9HL7FKv6nedQ7dIaKoP-73" value="ALLOC_3&lt;br&gt;&lt;br&gt;&lt;div style=&quot;text-align: left&quot;&gt;&lt;span&gt;&lt;span style=&quot;white-space: pre&quot;&gt; &lt;/span&gt;mem_rd = 1&lt;/span&gt;&lt;br&gt;&lt;/div&gt;&lt;div style=&quot;text-align: left&quot;&gt;&lt;span style=&quot;text-align: center&quot;&gt;&lt;div style=&quot;text-align: left&quot;&gt;&lt;span&gt; &lt;/span&gt;&lt;span style=&quot;white-space: pre&quot;&gt; &lt;/span&gt;mem_offset = 3&#39;b110&lt;/div&gt;&lt;div style=&quot;text-align: left&quot;&gt;&lt;span&gt;&lt;span style=&quot;white-space: pre&quot;&gt; &lt;/span&gt;cache_offset = 3&#39;b010&lt;/span&gt;&lt;/div&gt;&lt;div style=&quot;text-align: left&quot;&gt;&lt;span&gt;&lt;span style=&quot;white-space: pre&quot;&gt; &lt;/span&gt;cache_write = 1&lt;/span&gt;&lt;/div&gt;&lt;div style=&quot;text-align: left&quot;&gt;&lt;span&gt;&lt;span style=&quot;white-space: pre&quot;&gt; &lt;/span&gt;cache_data_in_select = mem&lt;/span&gt;&lt;/div&gt;&lt;/span&gt;&lt;/div&gt;&lt;div style=&quot;text-align: left&quot;&gt;&lt;div style=&quot;font-family: &amp;#34;helvetica&amp;#34;&quot;&gt;&lt;span&gt;&lt;span style=&quot;white-space: pre&quot;&gt; &lt;/span&gt;cache_offset_select = 1&#39;b1&lt;/span&gt;&lt;br&gt;&lt;/div&gt;&lt;/div&gt;" style="ellipse;whiteSpace=wrap;html=1;" parent="1" vertex="1">
          <mxGeometry x="-630" y="1064" width="260" height="208.84" as="geometry" />
        </mxCell>
        <mxCell id="G9HL7FKv6nedQ7dIaKoP-74" value="stall" style="text;html=1;align=center;verticalAlign=middle;resizable=0;points=[];autosize=1;strokeColor=none;fillColor=none;" parent="1" vertex="1">
          <mxGeometry x="-465" y="1007.68" width="40" height="20" as="geometry" />
        </mxCell>
        <mxCell id="G9HL7FKv6nedQ7dIaKoP-76" value="ALLOC_4&lt;br&gt;&lt;blockquote style=&quot;margin: 0px 0px 0px 40px ; border: none ; padding: 0px&quot;&gt;&lt;div style=&quot;text-align: left&quot;&gt;&lt;br&gt;&lt;div&gt;&lt;span&gt; &lt;/span&gt;&lt;/div&gt;&lt;blockquote style=&quot;text-align: center ; margin: 0px 0px 0px 40px ; border: none ; padding: 0px&quot;&gt;&lt;div style=&quot;text-align: left&quot;&gt;cache_offset = 3&#39;b100&lt;/div&gt;&lt;div style=&quot;text-align: left&quot;&gt;cahce_write = 1&lt;/div&gt;&lt;div style=&quot;text-align: left&quot;&gt;cache_data_in_select = mem&lt;/div&gt;&lt;/blockquote&gt;&lt;/div&gt;&lt;/blockquote&gt;&lt;div style=&quot;text-align: left&quot;&gt;&lt;div style=&quot;font-family: &amp;#34;helvetica&amp;#34;&quot;&gt;&lt;span style=&quot;white-space: pre&quot;&gt; &lt;/span&gt;&lt;span style=&quot;white-space: pre&quot;&gt; &lt;/span&gt;&lt;span style=&quot;white-space: pre&quot;&gt; &lt;span style=&quot;white-space: pre&quot;&gt; &lt;/span&gt;&lt;span style=&quot;white-space: pre&quot;&gt; &lt;/span&gt;&lt;span style=&quot;white-space: pre&quot;&gt; &lt;/span&gt;&lt;/span&gt;cache_offset_select = 1&#39;b1&lt;/div&gt;&lt;/div&gt;" style="ellipse;whiteSpace=wrap;html=1;" parent="1" vertex="1">
          <mxGeometry x="-215" y="970" width="280" height="217.12" as="geometry" />
        </mxCell>
        <mxCell id="G9HL7FKv6nedQ7dIaKoP-79" value="ALLOC_5&lt;br&gt;&lt;br&gt;&lt;blockquote style=&quot;margin: 0px 0px 0px 40px ; border: none ; padding: 0px&quot;&gt;&lt;div style=&quot;text-align: left&quot;&gt;&lt;blockquote style=&quot;text-align: center ; margin: 0px 0px 0px 40px ; border: none ; padding: 0px&quot;&gt;&lt;div style=&quot;text-align: left&quot;&gt;cache_offset = 3&#39;b110&lt;/div&gt;&lt;div style=&quot;text-align: left&quot;&gt;cache_write = 1&lt;/div&gt;&lt;div style=&quot;text-align: left&quot;&gt;cache_data_in_select = mem&lt;br&gt;&lt;/div&gt;&lt;div style=&quot;text-align: left&quot;&gt;&lt;span style=&quot;font-family: &amp;#34;helvetica&amp;#34;&quot;&gt;cache_offset_select = 1&#39;b1&lt;/span&gt;&lt;br&gt;&lt;/div&gt;&lt;/blockquote&gt;&lt;/div&gt;&lt;/blockquote&gt;" style="ellipse;whiteSpace=wrap;html=1;" parent="1" vertex="1">
          <mxGeometry x="60" y="660" width="270" height="220" as="geometry" />
        </mxCell>
        <mxCell id="G9HL7FKv6nedQ7dIaKoP-82" value="DONE&lt;br&gt;&lt;br&gt;valid_in = 1&lt;br&gt;done = 1&lt;br&gt;cache_hit = 1&lt;br&gt;stall_out = 0" style="ellipse;whiteSpace=wrap;html=1;" parent="1" vertex="1">
          <mxGeometry x="-425" y="97.5" width="370" height="245" as="geometry" />
        </mxCell>
        <mxCell id="G9HL7FKv6nedQ7dIaKoP-83" value="" style="endArrow=classic;html=1;rounded=0;exitX=0.5;exitY=1;exitDx=0;exitDy=0;entryX=0.5;entryY=0;entryDx=0;entryDy=0;" parent="1" source="G9HL7FKv6nedQ7dIaKoP-18" target="G9HL7FKv6nedQ7dIaKoP-67" edge="1">
          <mxGeometry width="50" height="50" relative="1" as="geometry">
            <mxPoint x="-1080" y="890" as="sourcePoint" />
            <mxPoint x="-1030" y="840" as="targetPoint" />
          </mxGeometry>
        </mxCell>
        <mxCell id="G9HL7FKv6nedQ7dIaKoP-84" value="" style="endArrow=classic;html=1;rounded=0;entryX=-0.005;entryY=0.399;entryDx=0;entryDy=0;entryPerimeter=0;" parent="1" source="G9HL7FKv6nedQ7dIaKoP-67" target="G9HL7FKv6nedQ7dIaKoP-70" edge="1">
          <mxGeometry width="50" height="50" relative="1" as="geometry">
            <mxPoint x="-1120" y="1250" as="sourcePoint" />
            <mxPoint x="-1070" y="1200" as="targetPoint" />
          </mxGeometry>
        </mxCell>
        <mxCell id="G9HL7FKv6nedQ7dIaKoP-85" value="" style="endArrow=classic;html=1;rounded=0;exitX=1;exitY=0.5;exitDx=0;exitDy=0;entryX=0.008;entryY=0.571;entryDx=0;entryDy=0;entryPerimeter=0;" parent="1" source="G9HL7FKv6nedQ7dIaKoP-70" target="G9HL7FKv6nedQ7dIaKoP-73" edge="1">
          <mxGeometry width="50" height="50" relative="1" as="geometry">
            <mxPoint x="-580" y="1100" as="sourcePoint" />
            <mxPoint x="-530" y="1050" as="targetPoint" />
          </mxGeometry>
        </mxCell>
        <mxCell id="G9HL7FKv6nedQ7dIaKoP-86" value="" style="endArrow=classic;html=1;rounded=0;exitX=0.979;exitY=0.337;exitDx=0;exitDy=0;exitPerimeter=0;" parent="1" source="G9HL7FKv6nedQ7dIaKoP-73" target="G9HL7FKv6nedQ7dIaKoP-76" edge="1">
          <mxGeometry width="50" height="50" relative="1" as="geometry">
            <mxPoint x="-120" y="1070" as="sourcePoint" />
            <mxPoint x="-70" y="1020" as="targetPoint" />
          </mxGeometry>
        </mxCell>
        <mxCell id="G9HL7FKv6nedQ7dIaKoP-87" value="" style="endArrow=classic;html=1;rounded=0;exitX=0.704;exitY=0.026;exitDx=0;exitDy=0;exitPerimeter=0;" parent="1" source="G9HL7FKv6nedQ7dIaKoP-76" target="G9HL7FKv6nedQ7dIaKoP-79" edge="1">
          <mxGeometry width="50" height="50" relative="1" as="geometry">
            <mxPoint x="240" y="800" as="sourcePoint" />
            <mxPoint x="290" y="750" as="targetPoint" />
          </mxGeometry>
        </mxCell>
        <mxCell id="G9HL7FKv6nedQ7dIaKoP-89" value="" style="endArrow=classic;html=1;rounded=0;exitX=0;exitY=0.5;exitDx=0;exitDy=0;entryX=1;entryY=0.5;entryDx=0;entryDy=0;" parent="1" source="G9HL7FKv6nedQ7dIaKoP-82" target="G9HL7FKv6nedQ7dIaKoP-1" edge="1">
          <mxGeometry width="50" height="50" relative="1" as="geometry">
            <mxPoint x="-560" y="150" as="sourcePoint" />
            <mxPoint x="-510" y="100" as="targetPoint" />
          </mxGeometry>
        </mxCell>
        <mxCell id="MkebhDBpNGItt_J_HD5r-2" value="" style="curved=1;endArrow=classic;html=1;rounded=0;exitX=0.095;exitY=0.192;exitDx=0;exitDy=0;exitPerimeter=0;entryX=0.5;entryY=0;entryDx=0;entryDy=0;" parent="1" edge="1">
          <mxGeometry width="50" height="50" relative="1" as="geometry">
            <mxPoint x="-600" y="1098.6" as="sourcePoint" />
            <mxPoint x="-498.75" y="1061.16" as="targetPoint" />
            <Array as="points">
              <mxPoint x="-599.75" y="1026.16" />
              <mxPoint x="-493.75" y="1010.0000000000001" />
            </Array>
          </mxGeometry>
        </mxCell>
        <mxCell id="MkebhDBpNGItt_J_HD5r-5" value="" style="endArrow=classic;html=1;rounded=0;entryX=1;entryY=1;entryDx=0;entryDy=0;" parent="1" target="MkebhDBpNGItt_J_HD5r-7" edge="1">
          <mxGeometry width="50" height="50" relative="1" as="geometry">
            <mxPoint x="260" y="670" as="sourcePoint" />
            <mxPoint x="280" y="500" as="targetPoint" />
            <Array as="points">
              <mxPoint x="310" y="570" />
            </Array>
          </mxGeometry>
        </mxCell>
        <mxCell id="MkebhDBpNGItt_J_HD5r-7" value="ALLOC_6&lt;br&gt;&lt;br&gt;&lt;br&gt;&lt;blockquote style=&quot;margin: 0px 0px 0px 40px ; border: none ; padding: 0px&quot;&gt;&lt;div style=&quot;text-align: left&quot;&gt;comp = 1?&lt;/div&gt;&lt;div style=&quot;text-align: left&quot;&gt;&lt;div&gt;&lt;span&gt; &lt;/span&gt;&lt;span&gt; &lt;/span&gt;&lt;span&gt;offset = address[2:0]&lt;/span&gt;&lt;/div&gt;&lt;div style=&quot;text-align: left&quot;&gt;&lt;span&gt;cache_write = 1&lt;/span&gt;&lt;br&gt;&lt;/div&gt;&lt;div style=&quot;text-align: left&quot;&gt;cache_data_in_select = out&lt;span style=&quot;font-family: &amp;#34;helvetica&amp;#34;&quot;&gt;&lt;br&gt;&lt;/span&gt;&lt;/div&gt;&lt;div style=&quot;text-align: left&quot;&gt;&lt;span style=&quot;font-family: &amp;#34;helvetica&amp;#34;&quot;&gt;cache_offset_select = 1&#39;b0&lt;/span&gt;&lt;br&gt;&lt;/div&gt;&lt;/div&gt;&lt;/blockquote&gt;" style="ellipse;whiteSpace=wrap;html=1;" parent="1" vertex="1">
          <mxGeometry y="300" width="270" height="220" as="geometry" />
        </mxCell>
        <mxCell id="MkebhDBpNGItt_J_HD5r-8" value="" style="endArrow=classic;html=1;rounded=0;exitX=0.185;exitY=0.091;exitDx=0;exitDy=0;exitPerimeter=0;" parent="1" source="MkebhDBpNGItt_J_HD5r-7" target="ubBGQjgHWbrzZHi7zzIe-1" edge="1">
          <mxGeometry width="50" height="50" relative="1" as="geometry">
            <mxPoint x="-270" y="440" as="sourcePoint" />
            <mxPoint x="-220" y="390" as="targetPoint" />
          </mxGeometry>
        </mxCell>
        <mxCell id="MkebhDBpNGItt_J_HD5r-9" value="" style="endArrow=classic;html=1;rounded=0;" parent="1" target="ubBGQjgHWbrzZHi7zzIe-1" edge="1">
          <mxGeometry width="50" height="50" relative="1" as="geometry">
            <mxPoint x="310" y="710" as="sourcePoint" />
            <mxPoint x="360" y="660" as="targetPoint" />
            <Array as="points">
              <mxPoint x="480" y="540" />
              <mxPoint x="460" y="350" />
            </Array>
          </mxGeometry>
        </mxCell>
        <mxCell id="MkebhDBpNGItt_J_HD5r-10" value="Wr&amp;amp;~Rd" style="text;html=1;align=center;verticalAlign=middle;resizable=0;points=[];autosize=1;strokeColor=none;fillColor=none;" parent="1" vertex="1">
          <mxGeometry x="169" y="558.28" width="60" height="20" as="geometry" />
        </mxCell>
        <mxCell id="MkebhDBpNGItt_J_HD5r-11" value="~Wr&amp;amp;Rd" style="text;html=1;align=center;verticalAlign=middle;resizable=0;points=[];autosize=1;strokeColor=none;fillColor=none;" parent="1" vertex="1">
          <mxGeometry x="320" y="285" width="60" height="20" as="geometry" />
        </mxCell>
        <mxCell id="MkebhDBpNGItt_J_HD5r-85" value="&lt;font color=&quot;#ff0000&quot;&gt;(hit0 &amp;amp; valid0)&lt;br&gt;| (hit1 &amp;amp; valid1)&lt;/font&gt;" style="text;html=1;align=center;verticalAlign=middle;resizable=0;points=[];autosize=1;strokeColor=none;fillColor=none;" parent="1" vertex="1">
          <mxGeometry x="-565" y="220.00000000000006" width="100" height="30" as="geometry" />
        </mxCell>
        <mxCell id="MkebhDBpNGItt_J_HD5r-86" value="&lt;font color=&quot;#ff0000&quot;&gt;~(hit0 &amp;amp; valid0)&amp;nbsp;&amp;amp; &lt;br&gt;~(hit1 &amp;amp; valid1) &amp;amp; &lt;br&gt;((&lt;/font&gt;&lt;span style=&quot;color: rgb(255 , 0 , 0)&quot;&gt;dirty0&lt;/span&gt;&lt;span style=&quot;color: rgb(255 , 0 , 0)&quot;&gt;&amp;amp; ~victimway) |&amp;nbsp;&lt;br&gt;&lt;/span&gt;&lt;div&gt;&lt;font color=&quot;#ff0000&quot;&gt;(&lt;/font&gt;&lt;span style=&quot;color: rgb(255 , 0 , 0)&quot;&gt;dirty1&lt;/span&gt;&lt;span style=&quot;color: rgb(255 , 0 , 0)&quot;&gt;&amp;amp; victimway))&lt;/span&gt;&lt;/div&gt;" style="text;html=1;align=center;verticalAlign=middle;resizable=0;points=[];autosize=1;strokeColor=none;fillColor=none;" parent="1" vertex="1">
          <mxGeometry x="-641" y="475.86" width="140" height="60" as="geometry" />
        </mxCell>
        <mxCell id="MkebhDBpNGItt_J_HD5r-88" value="&lt;font color=&quot;#ff0000&quot;&gt;(~(hit0 &amp;amp; valid0) &amp;amp; ~dirty0) &lt;br&gt;&amp;amp; (~(hit1 &amp;amp; valid1) &amp;amp; ~dirty1)&lt;/font&gt;" style="text;html=1;align=center;verticalAlign=middle;resizable=0;points=[];autosize=1;strokeColor=none;fillColor=none;" parent="1" vertex="1">
          <mxGeometry x="-1080" y="467.68" width="170" height="30" as="geometry" />
        </mxCell>
        <mxCell id="MkebhDBpNGItt_J_HD5r-89" value="&lt;font color=&quot;#ff0000&quot;&gt;(~(hit0 &amp;amp; valid0) &amp;amp; ~dirty0) &lt;br&gt;&amp;amp; (~(hit1 &amp;amp; valid1) &amp;amp; ~dirty1)&lt;/font&gt;" style="text;html=1;align=center;verticalAlign=middle;resizable=0;points=[];autosize=1;strokeColor=none;fillColor=none;" parent="1" vertex="1">
          <mxGeometry x="-1269" y="431" width="170" height="30" as="geometry" />
        </mxCell>
        <mxCell id="MkebhDBpNGItt_J_HD5r-91" value="&lt;font color=&quot;#ff0000&quot;&gt;~(hit0 &amp;amp; valid0)&amp;nbsp;&amp;amp; &lt;br&gt;~(hit1 &amp;amp; valid1) &amp;amp; &lt;br&gt;((&lt;/font&gt;&lt;span style=&quot;color: rgb(255 , 0 , 0)&quot;&gt;dirty0&lt;/span&gt;&lt;span style=&quot;color: rgb(255 , 0 , 0)&quot;&gt;&amp;amp; ~victimway) |&amp;nbsp;&lt;br&gt;&lt;/span&gt;&lt;font color=&quot;#ff0000&quot;&gt;(&lt;/font&gt;&lt;span style=&quot;color: rgb(255 , 0 , 0)&quot;&gt;dirty1&lt;/span&gt;&lt;span style=&quot;color: rgb(255 , 0 , 0)&quot;&gt;&amp;amp; victimway))&lt;/span&gt;" style="text;html=1;align=center;verticalAlign=middle;resizable=0;points=[];autosize=1;strokeColor=none;fillColor=none;" parent="1" vertex="1">
          <mxGeometry x="-555" y="387.68" width="140" height="60" as="geometry" />
        </mxCell>
        <mxCell id="MkebhDBpNGItt_J_HD5r-92" value="&lt;div&gt;IDLE&lt;/div&gt;&lt;div&gt;stall_out = 1;&lt;br&gt;&lt;/div&gt;" style="ellipse;whiteSpace=wrap;html=1;" parent="1" vertex="1">
          <mxGeometry x="-611" y="2230" width="160" height="120" as="geometry" />
        </mxCell>
        <mxCell id="MkebhDBpNGItt_J_HD5r-93" value="~Rd&amp;amp;~Wr" style="text;html=1;align=center;verticalAlign=middle;resizable=0;points=[];autosize=1;strokeColor=none;fillColor=none;" parent="1" vertex="1">
          <mxGeometry x="-606" y="2185" width="70" height="20" as="geometry" />
        </mxCell>
        <mxCell id="MkebhDBpNGItt_J_HD5r-94" value="" style="curved=1;endArrow=classic;html=1;rounded=0;entryX=0.396;entryY=-0.006;entryDx=0;entryDy=0;entryPerimeter=0;" parent="1" edge="1">
          <mxGeometry width="50" height="50" relative="1" as="geometry">
            <mxPoint x="-607.5640235470282" y="2261.717988226486" as="sourcePoint" />
            <mxPoint x="-557.6400000000003" y="2234.2799999999997" as="targetPoint" />
            <Array as="points">
              <mxPoint x="-621" y="2255" />
              <mxPoint x="-621" y="2185" />
            </Array>
          </mxGeometry>
        </mxCell>
        <mxCell id="MkebhDBpNGItt_J_HD5r-95" value="COMPARE_TAGS_Rd&lt;br&gt;&lt;br&gt;comp = 1,&lt;br&gt;cache_wr(Write) = 0" style="ellipse;whiteSpace=wrap;html=1;" parent="1" vertex="1">
          <mxGeometry x="-816" y="2390" width="160" height="120" as="geometry" />
        </mxCell>
        <mxCell id="MkebhDBpNGItt_J_HD5r-96" value="COMPARE_TAGS_Wr&lt;br&gt;&lt;br&gt;comp = 1,&lt;br&gt;&lt;div&gt;cache_wr(Write) = 1&lt;/div&gt;" style="ellipse;whiteSpace=wrap;html=1;" parent="1" vertex="1">
          <mxGeometry x="-421" y="2393.84" width="160" height="120" as="geometry" />
        </mxCell>
        <mxCell id="MkebhDBpNGItt_J_HD5r-97" value="" style="endArrow=classic;html=1;rounded=0;exitX=0.052;exitY=0.767;exitDx=0;exitDy=0;exitPerimeter=0;" parent="1" source="MkebhDBpNGItt_J_HD5r-92" target="MkebhDBpNGItt_J_HD5r-95" edge="1">
          <mxGeometry width="50" height="50" relative="1" as="geometry">
            <mxPoint x="-611" y="2350" as="sourcePoint" />
            <mxPoint x="-801.0799999999999" y="2450" as="targetPoint" />
          </mxGeometry>
        </mxCell>
        <mxCell id="MkebhDBpNGItt_J_HD5r-98" value="~Rd &amp;amp;Wr" style="text;html=1;align=center;verticalAlign=middle;resizable=0;points=[];autosize=1;strokeColor=none;fillColor=none;" parent="1" vertex="1">
          <mxGeometry x="-751" y="2350" width="60" height="20" as="geometry" />
        </mxCell>
        <mxCell id="MkebhDBpNGItt_J_HD5r-99" value="" style="endArrow=classic;html=1;rounded=0;exitX=0.904;exitY=0.191;exitDx=0;exitDy=0;exitPerimeter=0;" parent="1" source="MkebhDBpNGItt_J_HD5r-95" target="MkebhDBpNGItt_J_HD5r-142" edge="1">
          <mxGeometry width="50" height="50" relative="1" as="geometry">
            <mxPoint x="-631" y="2480" as="sourcePoint" />
            <mxPoint x="-581" y="2430" as="targetPoint" />
          </mxGeometry>
        </mxCell>
        <mxCell id="MkebhDBpNGItt_J_HD5r-100" value="" style="endArrow=classic;html=1;rounded=0;exitX=0.813;exitY=0.917;exitDx=0;exitDy=0;exitPerimeter=0;entryX=0;entryY=0;entryDx=0;entryDy=0;" parent="1" source="MkebhDBpNGItt_J_HD5r-92" target="MkebhDBpNGItt_J_HD5r-96" edge="1">
          <mxGeometry width="50" height="50" relative="1" as="geometry">
            <mxPoint x="-232.12000000000012" y="2329.12" as="sourcePoint" />
            <mxPoint x="-421.0031655211501" y="2509.9074480163645" as="targetPoint" />
          </mxGeometry>
        </mxCell>
        <mxCell id="MkebhDBpNGItt_J_HD5r-101" value="~Rd &amp;amp;Wr" style="text;html=1;align=center;verticalAlign=middle;resizable=0;points=[];autosize=1;strokeColor=none;fillColor=none;" parent="1" vertex="1">
          <mxGeometry x="-416" y="2360" width="60" height="20" as="geometry" />
        </mxCell>
        <mxCell id="MkebhDBpNGItt_J_HD5r-102" value="" style="endArrow=classic;html=1;rounded=0;" parent="1" source="MkebhDBpNGItt_J_HD5r-96" target="MkebhDBpNGItt_J_HD5r-142" edge="1">
          <mxGeometry width="50" height="50" relative="1" as="geometry">
            <mxPoint x="-405.8000000000002" y="2520" as="sourcePoint" />
            <mxPoint x="-381" y="2330" as="targetPoint" />
          </mxGeometry>
        </mxCell>
        <mxCell id="MkebhDBpNGItt_J_HD5r-103" value="ALLOC_0&lt;br&gt;&lt;br&gt;&lt;div style=&quot;text-align: left&quot;&gt;&lt;br&gt;&lt;/div&gt;&lt;blockquote style=&quot;margin: 0 0 0 40px ; border: none ; padding: 0px&quot;&gt;&lt;span&gt;&lt;div style=&quot;text-align: left&quot;&gt;&lt;span&gt;mem_rd = 1&lt;/span&gt;&lt;/div&gt;&lt;/span&gt;&lt;span&gt;&lt;div style=&quot;text-align: left&quot;&gt;&lt;span&gt;mem_offset = 3&#39;b000&lt;/span&gt;&lt;/div&gt;&lt;div style=&quot;text-align: left&quot;&gt;&lt;div&gt;&lt;span style=&quot;font-family: &amp;#34;helvetica&amp;#34;&quot;&gt;mem_offset_select = 1&#39;b1&lt;/span&gt;&lt;br&gt;&lt;/div&gt;&lt;div&gt;&lt;br&gt;&lt;/div&gt;&lt;/div&gt;&lt;/span&gt;&lt;/blockquote&gt;&lt;div style=&quot;text-align: left&quot;&gt;&lt;br&gt;&lt;/div&gt;" style="ellipse;whiteSpace=wrap;html=1;" parent="1" vertex="1">
          <mxGeometry x="-1021" y="2550" width="280" height="210" as="geometry" />
        </mxCell>
        <mxCell id="MkebhDBpNGItt_J_HD5r-104" value="" style="endArrow=classic;html=1;rounded=0;exitX=0.183;exitY=0.913;exitDx=0;exitDy=0;exitPerimeter=0;" parent="1" source="MkebhDBpNGItt_J_HD5r-95" edge="1">
          <mxGeometry width="50" height="50" relative="1" as="geometry">
            <mxPoint x="-1061" y="2510" as="sourcePoint" />
            <mxPoint x="-831" y="2560" as="targetPoint" />
          </mxGeometry>
        </mxCell>
        <mxCell id="MkebhDBpNGItt_J_HD5r-105" value="stall" style="text;html=1;align=center;verticalAlign=middle;resizable=0;points=[];autosize=1;strokeColor=none;fillColor=none;" parent="1" vertex="1">
          <mxGeometry x="-1120" y="2543.84" width="40" height="20" as="geometry" />
        </mxCell>
        <mxCell id="MkebhDBpNGItt_J_HD5r-106" value="" style="curved=1;endArrow=classic;html=1;rounded=0;entryX=0.396;entryY=-0.006;entryDx=0;entryDy=0;entryPerimeter=0;exitX=0.095;exitY=0.192;exitDx=0;exitDy=0;exitPerimeter=0;" parent="1" source="MkebhDBpNGItt_J_HD5r-103" edge="1">
          <mxGeometry width="50" height="50" relative="1" as="geometry">
            <mxPoint x="-1038" y="2590" as="sourcePoint" />
            <mxPoint x="-987.6400000000003" y="2563.12" as="targetPoint" />
            <Array as="points">
              <mxPoint x="-1051" y="2583.84" />
              <mxPoint x="-1051" y="2513.84" />
            </Array>
          </mxGeometry>
        </mxCell>
        <mxCell id="MkebhDBpNGItt_J_HD5r-107" value="" style="endArrow=classic;html=1;rounded=0;exitX=0.183;exitY=0.913;exitDx=0;exitDy=0;exitPerimeter=0;" parent="1" edge="1">
          <mxGeometry width="50" height="50" relative="1" as="geometry">
            <mxPoint x="-386.7199999999998" y="2500" as="sourcePoint" />
            <mxPoint x="-771" y="2600" as="targetPoint" />
          </mxGeometry>
        </mxCell>
        <mxCell id="MkebhDBpNGItt_J_HD5r-108" value="WB_0&lt;br&gt;&lt;br&gt;mem_wr = 1&lt;br&gt;tag_select = 1&#39;b1&lt;br&gt;&lt;div&gt;&lt;span style=&quot;color: rgba(0 , 0 , 0 , 0) ; font-family: monospace ; font-size: 0px&quot;&gt;%3CmxGraphModel%3E%3Croot%3E%3CmxCell%20id%3D%220%22%2F%3E%3CmxCell%20id%3D%221%22%20parent%3D%220%22%2F%3E%3CmxCell%20id%3D%222%22%20value%3D%22tag_select%22%20style%3D%22text%3Bhtml%3D1%3Balign%3Dcenter%3BverticalAlign%3Dmiddle%3Bresizable%3D0%3Bpoints%3D%5B%5D%3Bautosize%3D1%3BstrokeColor%3Dnone%3BfillColor%3Dnone%3B%22%20vertex%3D%221%22%20parent%3D%221%22%3E%3CmxGeometry%20x%3D%222430%22%20y%3D%22310%22%20width%3D%2270%22%20height%3D%2220%22%20as%3D%22geometry%22%2F%3E%3C%2FmxCell%3E%3C%2Froot%3E%3C%2FmxGraphModel%3E&lt;/span&gt;mem_offset = 3&#39;b000&lt;/div&gt;&lt;div&gt;cache_offset = 3&#39;b000&lt;/div&gt;&lt;div&gt;cache_offset_select = 1&#39;b1&lt;br&gt;&lt;/div&gt;" style="ellipse;whiteSpace=wrap;html=1;" parent="1" vertex="1">
          <mxGeometry x="-210" y="2488.28" width="215" height="161.72" as="geometry" />
        </mxCell>
        <mxCell id="MkebhDBpNGItt_J_HD5r-109" value="stall" style="text;html=1;align=center;verticalAlign=middle;resizable=0;points=[];autosize=1;strokeColor=none;fillColor=none;" parent="1" vertex="1">
          <mxGeometry x="44" y="2454.14" width="40" height="20" as="geometry" />
        </mxCell>
        <mxCell id="MkebhDBpNGItt_J_HD5r-110" value="" style="curved=1;endArrow=classic;html=1;rounded=0;exitX=0.945;exitY=0.297;exitDx=0;exitDy=0;exitPerimeter=0;entryX=0.722;entryY=0.065;entryDx=0;entryDy=0;entryPerimeter=0;" parent="1" source="MkebhDBpNGItt_J_HD5r-108" target="MkebhDBpNGItt_J_HD5r-108" edge="1">
          <mxGeometry width="50" height="50" relative="1" as="geometry">
            <mxPoint x="29" y="2504.14" as="sourcePoint" />
            <mxPoint x="79" y="2454.14" as="targetPoint" />
            <Array as="points">
              <mxPoint x="79" y="2504.14" />
              <mxPoint x="29" y="2454.14" />
            </Array>
          </mxGeometry>
        </mxCell>
        <mxCell id="MkebhDBpNGItt_J_HD5r-111" value="WB_1&lt;br&gt;&lt;br&gt;mem_wr = 1&lt;br&gt;tag_select = 1&#39;b1&lt;br&gt;&lt;div&gt;mem_offset = 3&#39;b010&lt;br&gt;&lt;/div&gt;&lt;div&gt;cache_offset = 3&#39;b010&lt;br&gt;&lt;/div&gt;&lt;div&gt;cache_offset_select = 1&#39;b1&lt;/div&gt;" style="ellipse;whiteSpace=wrap;html=1;" parent="1" vertex="1">
          <mxGeometry x="79" y="2640" width="201" height="170" as="geometry" />
        </mxCell>
        <mxCell id="MkebhDBpNGItt_J_HD5r-112" value="stall" style="text;html=1;align=center;verticalAlign=middle;resizable=0;points=[];autosize=1;strokeColor=none;fillColor=none;" parent="1" vertex="1">
          <mxGeometry x="274" y="2608.2799999999997" width="40" height="20" as="geometry" />
        </mxCell>
        <mxCell id="MkebhDBpNGItt_J_HD5r-113" value="" style="curved=1;endArrow=classic;html=1;rounded=0;exitX=0.945;exitY=0.297;exitDx=0;exitDy=0;exitPerimeter=0;entryX=0.722;entryY=0.065;entryDx=0;entryDy=0;entryPerimeter=0;" parent="1" source="MkebhDBpNGItt_J_HD5r-111" target="MkebhDBpNGItt_J_HD5r-111" edge="1">
          <mxGeometry width="50" height="50" relative="1" as="geometry">
            <mxPoint x="259" y="2658.2799999999997" as="sourcePoint" />
            <mxPoint x="309" y="2608.2799999999997" as="targetPoint" />
            <Array as="points">
              <mxPoint x="309" y="2658.2799999999997" />
              <mxPoint x="259" y="2608.2799999999997" />
            </Array>
          </mxGeometry>
        </mxCell>
        <mxCell id="MkebhDBpNGItt_J_HD5r-114" value="WB_2&lt;br&gt;&lt;br&gt;mem_wr = 1&lt;br&gt;tag_select = 1&#39;b1&lt;br&gt;mem_offset = 3&#39;b100&lt;div&gt;cache_offset = 3&#39;100&lt;br&gt;&lt;/div&gt;&lt;div&gt;cache_offset_select = 1&#39;b1&lt;/div&gt;" style="ellipse;whiteSpace=wrap;html=1;" parent="1" vertex="1">
          <mxGeometry x="-160" y="2830" width="229" height="170" as="geometry" />
        </mxCell>
        <mxCell id="MkebhDBpNGItt_J_HD5r-115" value="stall" style="text;html=1;align=center;verticalAlign=middle;resizable=0;points=[];autosize=1;strokeColor=none;fillColor=none;" parent="1" vertex="1">
          <mxGeometry x="104" y="2818.2799999999997" width="40" height="20" as="geometry" />
        </mxCell>
        <mxCell id="MkebhDBpNGItt_J_HD5r-116" value="" style="curved=1;endArrow=classic;html=1;rounded=0;exitX=0.945;exitY=0.297;exitDx=0;exitDy=0;exitPerimeter=0;entryX=0.722;entryY=0.065;entryDx=0;entryDy=0;entryPerimeter=0;" parent="1" source="MkebhDBpNGItt_J_HD5r-114" target="MkebhDBpNGItt_J_HD5r-114" edge="1">
          <mxGeometry width="50" height="50" relative="1" as="geometry">
            <mxPoint x="89" y="2868.2799999999997" as="sourcePoint" />
            <mxPoint x="139" y="2818.2799999999997" as="targetPoint" />
            <Array as="points">
              <mxPoint x="139" y="2868.2799999999997" />
              <mxPoint x="89" y="2818.2799999999997" />
            </Array>
          </mxGeometry>
        </mxCell>
        <mxCell id="MkebhDBpNGItt_J_HD5r-117" value="WB_3&lt;br&gt;&lt;br&gt;mem_wr = 1&lt;br&gt;tag_select = 1&#39;b1&lt;br&gt;mem_offset = 3&#39;b110&lt;div&gt;cache_offset = 3&#39;b110&lt;br&gt;&lt;/div&gt;&lt;div&gt;cache_offset_select = 1&#39;b1&lt;/div&gt;" style="ellipse;whiteSpace=wrap;html=1;" parent="1" vertex="1">
          <mxGeometry x="-530" y="2840" width="249" height="160" as="geometry" />
        </mxCell>
        <mxCell id="MkebhDBpNGItt_J_HD5r-118" value="stall" style="text;html=1;align=center;verticalAlign=middle;resizable=0;points=[];autosize=1;strokeColor=none;fillColor=none;" parent="1" vertex="1">
          <mxGeometry x="-246" y="2830" width="40" height="20" as="geometry" />
        </mxCell>
        <mxCell id="MkebhDBpNGItt_J_HD5r-119" value="" style="curved=1;endArrow=classic;html=1;rounded=0;exitX=0.945;exitY=0.297;exitDx=0;exitDy=0;exitPerimeter=0;entryX=0.722;entryY=0.065;entryDx=0;entryDy=0;entryPerimeter=0;" parent="1" source="MkebhDBpNGItt_J_HD5r-117" target="MkebhDBpNGItt_J_HD5r-117" edge="1">
          <mxGeometry width="50" height="50" relative="1" as="geometry">
            <mxPoint x="-261" y="2880" as="sourcePoint" />
            <mxPoint x="-211" y="2830" as="targetPoint" />
            <Array as="points">
              <mxPoint x="-211" y="2880" />
              <mxPoint x="-261" y="2830" />
            </Array>
          </mxGeometry>
        </mxCell>
        <mxCell id="MkebhDBpNGItt_J_HD5r-120" value="" style="endArrow=classic;html=1;rounded=0;entryX=0.019;entryY=0.376;entryDx=0;entryDy=0;entryPerimeter=0;" parent="1" source="MkebhDBpNGItt_J_HD5r-96" target="MkebhDBpNGItt_J_HD5r-108" edge="1">
          <mxGeometry width="50" height="50" relative="1" as="geometry">
            <mxPoint x="-331" y="2610" as="sourcePoint" />
            <mxPoint x="-281" y="2560" as="targetPoint" />
          </mxGeometry>
        </mxCell>
        <mxCell id="MkebhDBpNGItt_J_HD5r-121" value="" style="endArrow=classic;html=1;rounded=0;exitX=1;exitY=1;exitDx=0;exitDy=0;" parent="1" source="MkebhDBpNGItt_J_HD5r-108" target="MkebhDBpNGItt_J_HD5r-111" edge="1">
          <mxGeometry width="50" height="50" relative="1" as="geometry">
            <mxPoint x="-91" y="2670" as="sourcePoint" />
            <mxPoint x="-41" y="2620" as="targetPoint" />
          </mxGeometry>
        </mxCell>
        <mxCell id="MkebhDBpNGItt_J_HD5r-122" value="" style="endArrow=classic;html=1;rounded=0;exitX=0.04;exitY=0.769;exitDx=0;exitDy=0;exitPerimeter=0;entryX=0.5;entryY=0;entryDx=0;entryDy=0;" parent="1" source="MkebhDBpNGItt_J_HD5r-111" target="MkebhDBpNGItt_J_HD5r-114" edge="1">
          <mxGeometry width="50" height="50" relative="1" as="geometry">
            <mxPoint x="-81" y="2710" as="sourcePoint" />
            <mxPoint x="-31" y="2660" as="targetPoint" />
          </mxGeometry>
        </mxCell>
        <mxCell id="MkebhDBpNGItt_J_HD5r-123" value="" style="endArrow=classic;html=1;rounded=0;exitX=-0.006;exitY=0.608;exitDx=0;exitDy=0;exitPerimeter=0;entryX=1.006;entryY=0.633;entryDx=0;entryDy=0;entryPerimeter=0;" parent="1" source="MkebhDBpNGItt_J_HD5r-114" target="MkebhDBpNGItt_J_HD5r-117" edge="1">
          <mxGeometry width="50" height="50" relative="1" as="geometry">
            <mxPoint x="-191" y="3120" as="sourcePoint" />
            <mxPoint x="-141" y="3070" as="targetPoint" />
          </mxGeometry>
        </mxCell>
        <mxCell id="MkebhDBpNGItt_J_HD5r-127" value="" style="endArrow=classic;html=1;rounded=0;exitX=0.975;exitY=0.717;exitDx=0;exitDy=0;exitPerimeter=0;entryX=0.019;entryY=0.643;entryDx=0;entryDy=0;entryPerimeter=0;" parent="1" source="MkebhDBpNGItt_J_HD5r-95" target="MkebhDBpNGItt_J_HD5r-108" edge="1">
          <mxGeometry width="50" height="50" relative="1" as="geometry">
            <mxPoint x="-381" y="2680" as="sourcePoint" />
            <mxPoint x="-331" y="2630" as="targetPoint" />
          </mxGeometry>
        </mxCell>
        <mxCell id="MkebhDBpNGItt_J_HD5r-128" value="" style="endArrow=classic;html=1;rounded=0;exitX=0;exitY=0;exitDx=0;exitDy=0;" parent="1" source="MkebhDBpNGItt_J_HD5r-117" target="MkebhDBpNGItt_J_HD5r-103" edge="1">
          <mxGeometry width="50" height="50" relative="1" as="geometry">
            <mxPoint x="-361" y="2740" as="sourcePoint" />
            <mxPoint x="-741" y="2720" as="targetPoint" />
          </mxGeometry>
        </mxCell>
        <mxCell id="MkebhDBpNGItt_J_HD5r-129" value="ALLOC_1&lt;br&gt;&lt;br&gt;&lt;div style=&quot;text-align: left&quot;&gt;&lt;span style=&quot;text-align: center&quot;&gt;&lt;div style=&quot;text-align: left&quot;&gt;mem_rd = 1&lt;/div&gt;&lt;/span&gt;&lt;span style=&quot;text-align: center&quot;&gt;&lt;div style=&quot;text-align: left&quot;&gt;mem_offset = 3&#39;b010&lt;/div&gt;&lt;div style=&quot;text-align: left&quot;&gt;&lt;span style=&quot;font-family: &amp;#34;helvetica&amp;#34;&quot;&gt;mem_offset_select = 1&#39;b1&lt;/span&gt;&lt;br&gt;&lt;/div&gt;&lt;div style=&quot;text-align: left&quot;&gt;&lt;br&gt;&lt;/div&gt;&lt;/span&gt;&lt;/div&gt;" style="ellipse;whiteSpace=wrap;html=1;" parent="1" vertex="1">
          <mxGeometry x="-1070" y="2941" width="260" height="178.84" as="geometry" />
        </mxCell>
        <mxCell id="MkebhDBpNGItt_J_HD5r-130" value="stall" style="text;html=1;align=center;verticalAlign=middle;resizable=0;points=[];autosize=1;strokeColor=none;fillColor=none;" parent="1" vertex="1">
          <mxGeometry x="-1120" y="2930" width="40" height="20" as="geometry" />
        </mxCell>
        <mxCell id="MkebhDBpNGItt_J_HD5r-131" value="" style="curved=1;endArrow=classic;html=1;rounded=0;entryX=0.396;entryY=-0.006;entryDx=0;entryDy=0;entryPerimeter=0;exitX=0.095;exitY=0.192;exitDx=0;exitDy=0;exitPerimeter=0;" parent="1" source="MkebhDBpNGItt_J_HD5r-129" edge="1">
          <mxGeometry width="50" height="50" relative="1" as="geometry">
            <mxPoint x="-1038" y="2976.16" as="sourcePoint" />
            <mxPoint x="-987.6400000000003" y="2949.2799999999997" as="targetPoint" />
            <Array as="points">
              <mxPoint x="-1051" y="2970" />
              <mxPoint x="-1051" y="2900" />
            </Array>
          </mxGeometry>
        </mxCell>
        <mxCell id="MkebhDBpNGItt_J_HD5r-132" value="ALLOC_2_read mem write cache&lt;br&gt;&lt;br&gt;&lt;div style=&quot;text-align: left&quot;&gt;&lt;span style=&quot;text-align: center&quot;&gt;&lt;div style=&quot;text-align: left&quot;&gt;&lt;span&gt; &lt;/span&gt;mem_rd = 1&lt;/div&gt;&lt;/span&gt;&lt;span style=&quot;text-align: center&quot;&gt;&lt;div style=&quot;text-align: left&quot;&gt;&lt;span&gt; &lt;/span&gt;mem_offset = 3&#39;b100&lt;/div&gt;&lt;/span&gt;&lt;/div&gt;&lt;blockquote style=&quot;margin: 0px 0px 0px 40px ; border: none ; padding: 0px&quot;&gt;&lt;div style=&quot;text-align: left&quot;&gt;cache_offset = 3&#39;b000&lt;/div&gt;&lt;div style=&quot;text-align: left&quot;&gt;write = 1&lt;/div&gt;&lt;div style=&quot;text-align: left&quot;&gt;cache_data_in_select = mem&lt;br&gt;&lt;/div&gt;&lt;div style=&quot;text-align: left&quot;&gt;&lt;div style=&quot;font-family: &amp;#34;helvetica&amp;#34;&quot;&gt;mem_offset_select = 1&#39;b1&lt;/div&gt;&lt;div style=&quot;font-family: &amp;#34;helvetica&amp;#34;&quot;&gt;cache_offset_select = 1&#39;b1&lt;/div&gt;&lt;/div&gt;&lt;/blockquote&gt;&lt;div style=&quot;text-align: left&quot;&gt;&lt;br&gt;&lt;/div&gt;valid_in = 1" style="ellipse;whiteSpace=wrap;html=1;" parent="1" vertex="1">
          <mxGeometry x="-761" y="3145" width="250" height="195" as="geometry" />
        </mxCell>
        <mxCell id="MkebhDBpNGItt_J_HD5r-133" value="stall" style="text;html=1;align=center;verticalAlign=middle;resizable=0;points=[];autosize=1;strokeColor=none;fillColor=none;" parent="1" vertex="1">
          <mxGeometry x="-611" y="3097.68" width="40" height="20" as="geometry" />
        </mxCell>
        <mxCell id="MkebhDBpNGItt_J_HD5r-134" value="" style="curved=1;endArrow=classic;html=1;rounded=0;exitX=0.095;exitY=0.192;exitDx=0;exitDy=0;exitPerimeter=0;entryX=0.5;entryY=0;entryDx=0;entryDy=0;" parent="1" source="MkebhDBpNGItt_J_HD5r-132" target="MkebhDBpNGItt_J_HD5r-132" edge="1">
          <mxGeometry width="50" height="50" relative="1" as="geometry">
            <mxPoint x="-618" y="3170" as="sourcePoint" />
            <mxPoint x="-681" y="3143" as="targetPoint" />
            <Array as="points">
              <mxPoint x="-737" y="3110" />
              <mxPoint x="-631" y="3093.84" />
            </Array>
          </mxGeometry>
        </mxCell>
        <mxCell id="MkebhDBpNGItt_J_HD5r-135" value="ALLOC_3&lt;br&gt;&lt;br&gt;&lt;div style=&quot;text-align: left&quot;&gt;&lt;span&gt;mem_rd = 1&lt;/span&gt;&lt;br&gt;&lt;/div&gt;&lt;div style=&quot;text-align: left&quot;&gt;&lt;span style=&quot;text-align: center&quot;&gt;&lt;div style=&quot;text-align: left&quot;&gt;&lt;span&gt; &lt;/span&gt;mem_offset = 3&#39;b110&lt;/div&gt;&lt;/span&gt;&lt;/div&gt;&lt;blockquote style=&quot;margin: 0px 0px 0px 40px ; border: none ; padding: 0px&quot;&gt;&lt;div style=&quot;text-align: left&quot;&gt;cache_offset = 3&#39;b010&lt;/div&gt;&lt;div style=&quot;text-align: left&quot;&gt;write = 1&lt;/div&gt;&lt;div style=&quot;text-align: left&quot;&gt;cache_data_in_select = mem&lt;br&gt;&lt;/div&gt;&lt;/blockquote&gt;&lt;div style=&quot;text-align: left&quot;&gt;&lt;div style=&quot;font-family: &amp;#34;helvetica&amp;#34;&quot;&gt;mem_offset_select = 1&#39;b1&lt;/div&gt;&lt;div style=&quot;font-family: &amp;#34;helvetica&amp;#34;&quot;&gt;cache_offset_select = 1&#39;b1&lt;/div&gt;&lt;/div&gt;valid_in = 1" style="ellipse;whiteSpace=wrap;html=1;" parent="1" vertex="1">
          <mxGeometry x="-331" y="3134" width="260" height="208.84" as="geometry" />
        </mxCell>
        <mxCell id="MkebhDBpNGItt_J_HD5r-136" value="stall" style="text;html=1;align=center;verticalAlign=middle;resizable=0;points=[];autosize=1;strokeColor=none;fillColor=none;" parent="1" vertex="1">
          <mxGeometry x="-131" y="3073.84" width="40" height="20" as="geometry" />
        </mxCell>
        <mxCell id="MkebhDBpNGItt_J_HD5r-137" value="ALLOC_4&lt;br&gt;&lt;blockquote style=&quot;margin: 0px 0px 0px 40px ; border: none ; padding: 0px&quot;&gt;&lt;div style=&quot;text-align: left&quot;&gt;&lt;blockquote style=&quot;text-align: center ; margin: 0px 0px 0px 40px ; border: none ; padding: 0px&quot;&gt;&lt;div style=&quot;text-align: left&quot;&gt;&lt;br&gt;&lt;/div&gt;&lt;div style=&quot;text-align: left&quot;&gt;cache_offset = 3&#39;b100&lt;/div&gt;&lt;div style=&quot;text-align: left&quot;&gt;write = 1&lt;/div&gt;&lt;div style=&quot;text-align: left&quot;&gt;cache_data_in_select = mem&lt;/div&gt;&lt;/blockquote&gt;&lt;/div&gt;&lt;/blockquote&gt;&lt;div style=&quot;text-align: left&quot;&gt;&lt;div style=&quot;font-family: &amp;#34;helvetica&amp;#34;&quot;&gt;&lt;span&gt; &lt;/span&gt;&lt;span&gt; &lt;/span&gt;cache_offset_select = 1&#39;b1&lt;/div&gt;&lt;/div&gt;valid_in = 1" style="ellipse;whiteSpace=wrap;html=1;" parent="1" vertex="1">
          <mxGeometry x="84" y="3040" width="280" height="217.12" as="geometry" />
        </mxCell>
        <mxCell id="MkebhDBpNGItt_J_HD5r-140" value="ALLOC_5&lt;br&gt;&lt;br&gt;&lt;blockquote style=&quot;margin: 0px 0px 0px 40px ; border: none ; padding: 0px&quot;&gt;&lt;div style=&quot;text-align: left&quot;&gt;&lt;blockquote style=&quot;text-align: center ; margin: 0px 0px 0px 40px ; border: none ; padding: 0px&quot;&gt;&lt;div style=&quot;text-align: left&quot;&gt;cache_offset = 3&#39;b110&lt;/div&gt;&lt;div style=&quot;text-align: left&quot;&gt;write = 1&lt;/div&gt;&lt;div style=&quot;text-align: left&quot;&gt;cache_data_in_select = mem&lt;br&gt;&lt;/div&gt;&lt;div style=&quot;text-align: left&quot;&gt;&lt;span style=&quot;font-family: &amp;#34;helvetica&amp;#34;&quot;&gt;cache_offset_select = 1&#39;b1&lt;/span&gt;&lt;br&gt;&lt;/div&gt;&lt;/blockquote&gt;&lt;/div&gt;&lt;/blockquote&gt;valid_in = 1" style="ellipse;whiteSpace=wrap;html=1;" parent="1" vertex="1">
          <mxGeometry x="359" y="2730" width="270" height="220" as="geometry" />
        </mxCell>
        <mxCell id="MkebhDBpNGItt_J_HD5r-142" value="DONE&lt;br&gt;&lt;br&gt;&lt;br&gt;done = 1&lt;br&gt;cache_hit = 1&lt;br&gt;stall_out = 0" style="ellipse;whiteSpace=wrap;html=1;" parent="1" vertex="1">
          <mxGeometry x="-141" y="2110" width="370" height="245" as="geometry" />
        </mxCell>
        <mxCell id="MkebhDBpNGItt_J_HD5r-143" value="" style="endArrow=classic;html=1;rounded=0;exitX=0.5;exitY=1;exitDx=0;exitDy=0;entryX=0.5;entryY=0;entryDx=0;entryDy=0;" parent="1" source="MkebhDBpNGItt_J_HD5r-103" target="MkebhDBpNGItt_J_HD5r-129" edge="1">
          <mxGeometry width="50" height="50" relative="1" as="geometry">
            <mxPoint x="-781" y="2960" as="sourcePoint" />
            <mxPoint x="-731" y="2910" as="targetPoint" />
          </mxGeometry>
        </mxCell>
        <mxCell id="MkebhDBpNGItt_J_HD5r-144" value="" style="endArrow=classic;html=1;rounded=0;entryX=-0.005;entryY=0.399;entryDx=0;entryDy=0;entryPerimeter=0;" parent="1" source="MkebhDBpNGItt_J_HD5r-129" target="MkebhDBpNGItt_J_HD5r-132" edge="1">
          <mxGeometry width="50" height="50" relative="1" as="geometry">
            <mxPoint x="-821" y="3320" as="sourcePoint" />
            <mxPoint x="-771" y="3270" as="targetPoint" />
          </mxGeometry>
        </mxCell>
        <mxCell id="MkebhDBpNGItt_J_HD5r-145" value="" style="endArrow=classic;html=1;rounded=0;exitX=1;exitY=0.5;exitDx=0;exitDy=0;entryX=0.008;entryY=0.571;entryDx=0;entryDy=0;entryPerimeter=0;" parent="1" source="MkebhDBpNGItt_J_HD5r-132" target="MkebhDBpNGItt_J_HD5r-135" edge="1">
          <mxGeometry width="50" height="50" relative="1" as="geometry">
            <mxPoint x="-281" y="3170" as="sourcePoint" />
            <mxPoint x="-231" y="3120" as="targetPoint" />
          </mxGeometry>
        </mxCell>
        <mxCell id="MkebhDBpNGItt_J_HD5r-146" value="" style="endArrow=classic;html=1;rounded=0;exitX=0.979;exitY=0.337;exitDx=0;exitDy=0;exitPerimeter=0;" parent="1" source="MkebhDBpNGItt_J_HD5r-135" target="MkebhDBpNGItt_J_HD5r-137" edge="1">
          <mxGeometry width="50" height="50" relative="1" as="geometry">
            <mxPoint x="179" y="3140" as="sourcePoint" />
            <mxPoint x="229" y="3090" as="targetPoint" />
          </mxGeometry>
        </mxCell>
        <mxCell id="MkebhDBpNGItt_J_HD5r-147" value="" style="endArrow=classic;html=1;rounded=0;exitX=0.704;exitY=0.026;exitDx=0;exitDy=0;exitPerimeter=0;" parent="1" source="MkebhDBpNGItt_J_HD5r-137" target="MkebhDBpNGItt_J_HD5r-140" edge="1">
          <mxGeometry width="50" height="50" relative="1" as="geometry">
            <mxPoint x="539" y="2870" as="sourcePoint" />
            <mxPoint x="589" y="2820" as="targetPoint" />
          </mxGeometry>
        </mxCell>
        <mxCell id="MkebhDBpNGItt_J_HD5r-148" value="" style="endArrow=classic;html=1;rounded=0;exitX=0;exitY=0.5;exitDx=0;exitDy=0;entryX=1;entryY=0.5;entryDx=0;entryDy=0;" parent="1" source="MkebhDBpNGItt_J_HD5r-142" target="MkebhDBpNGItt_J_HD5r-92" edge="1">
          <mxGeometry width="50" height="50" relative="1" as="geometry">
            <mxPoint x="-261" y="2220" as="sourcePoint" />
            <mxPoint x="-211" y="2170" as="targetPoint" />
          </mxGeometry>
        </mxCell>
        <mxCell id="MkebhDBpNGItt_J_HD5r-149" value="" style="curved=1;endArrow=classic;html=1;rounded=0;exitX=0.095;exitY=0.192;exitDx=0;exitDy=0;exitPerimeter=0;entryX=0.5;entryY=0;entryDx=0;entryDy=0;" parent="1" edge="1">
          <mxGeometry width="50" height="50" relative="1" as="geometry">
            <mxPoint x="-301" y="3168.6" as="sourcePoint" />
            <mxPoint x="-199.75" y="3131.16" as="targetPoint" />
            <Array as="points">
              <mxPoint x="-300.75" y="3096.16" />
              <mxPoint x="-194.75" y="3080" />
            </Array>
          </mxGeometry>
        </mxCell>
        <mxCell id="MkebhDBpNGItt_J_HD5r-151" value="" style="endArrow=classic;html=1;rounded=0;entryX=1;entryY=1;entryDx=0;entryDy=0;" parent="1" target="MkebhDBpNGItt_J_HD5r-152" edge="1">
          <mxGeometry width="50" height="50" relative="1" as="geometry">
            <mxPoint x="559" y="2740" as="sourcePoint" />
            <mxPoint x="579" y="2570" as="targetPoint" />
            <Array as="points">
              <mxPoint x="609" y="2640" />
            </Array>
          </mxGeometry>
        </mxCell>
        <mxCell id="MkebhDBpNGItt_J_HD5r-152" value="ALLOC_6&lt;br&gt;&lt;br&gt;&lt;br&gt;&lt;blockquote style=&quot;margin: 0px 0px 0px 40px ; border: none ; padding: 0px&quot;&gt;&lt;div style=&quot;text-align: left&quot;&gt;&lt;br&gt;&lt;/div&gt;&lt;div style=&quot;text-align: left&quot;&gt;&lt;div&gt;&lt;span&gt; &lt;/span&gt;&lt;span&gt; &lt;/span&gt;&lt;span&gt;offset = address[2:0]&lt;/span&gt;&lt;/div&gt;&lt;div&gt;&lt;span&gt;write = 1&lt;/span&gt;&lt;/div&gt;&lt;blockquote style=&quot;text-align: center ; margin: 0px 0px 0px 40px ; border: none ; padding: 0px&quot;&gt;&lt;div style=&quot;text-align: left&quot;&gt;cache_data_in_select = out&lt;br&gt;&lt;/div&gt;&lt;div style=&quot;text-align: left&quot;&gt;&lt;span style=&quot;font-family: &amp;#34;helvetica&amp;#34;&quot;&gt;cache_offset_select = 1&#39;b0&lt;/span&gt;&lt;br&gt;&lt;/div&gt;&lt;/blockquote&gt;&lt;/div&gt;&lt;/blockquote&gt;valid_in = 1" style="ellipse;whiteSpace=wrap;html=1;" parent="1" vertex="1">
          <mxGeometry x="299" y="2370" width="270" height="220" as="geometry" />
        </mxCell>
        <mxCell id="MkebhDBpNGItt_J_HD5r-153" value="" style="endArrow=classic;html=1;rounded=0;exitX=0.185;exitY=0.091;exitDx=0;exitDy=0;exitPerimeter=0;entryX=0;entryY=1;entryDx=0;entryDy=0;" parent="1" source="MkebhDBpNGItt_J_HD5r-152" target="ubBGQjgHWbrzZHi7zzIe-3" edge="1">
          <mxGeometry width="50" height="50" relative="1" as="geometry">
            <mxPoint x="29" y="2510" as="sourcePoint" />
            <mxPoint x="79" y="2460" as="targetPoint" />
          </mxGeometry>
        </mxCell>
        <mxCell id="MkebhDBpNGItt_J_HD5r-154" value="" style="endArrow=classic;html=1;rounded=0;" parent="1" target="ubBGQjgHWbrzZHi7zzIe-3" edge="1">
          <mxGeometry width="50" height="50" relative="1" as="geometry">
            <mxPoint x="609" y="2780" as="sourcePoint" />
            <mxPoint x="659" y="2730" as="targetPoint" />
            <Array as="points">
              <mxPoint x="779" y="2610" />
              <mxPoint x="759" y="2420" />
            </Array>
          </mxGeometry>
        </mxCell>
        <mxCell id="MkebhDBpNGItt_J_HD5r-155" value="Wr&amp;amp;~Rd" style="text;html=1;align=center;verticalAlign=middle;resizable=0;points=[];autosize=1;strokeColor=none;fillColor=none;" parent="1" vertex="1">
          <mxGeometry x="520" y="2628.28" width="60" height="20" as="geometry" />
        </mxCell>
        <mxCell id="MkebhDBpNGItt_J_HD5r-156" value="~Wr&amp;amp;Rd" style="text;html=1;align=center;verticalAlign=middle;resizable=0;points=[];autosize=1;strokeColor=none;fillColor=none;" parent="1" vertex="1">
          <mxGeometry x="619" y="2355" width="60" height="20" as="geometry" />
        </mxCell>
        <mxCell id="MkebhDBpNGItt_J_HD5r-163" value="hit &amp;amp; valid" style="text;html=1;align=center;verticalAlign=middle;resizable=0;points=[];autosize=1;strokeColor=none;fillColor=none;" parent="1" vertex="1">
          <mxGeometry x="-376" y="2300" width="70" height="20" as="geometry" />
        </mxCell>
        <mxCell id="MkebhDBpNGItt_J_HD5r-164" value="hit &amp;amp; valid" style="text;html=1;align=center;verticalAlign=middle;resizable=0;points=[];autosize=1;strokeColor=none;fillColor=none;" parent="1" vertex="1">
          <mxGeometry x="-281" y="2370" width="70" height="20" as="geometry" />
        </mxCell>
        <mxCell id="MkebhDBpNGItt_J_HD5r-165" value="~(hit &amp;amp; valid) &amp;amp; ~dirty" style="text;html=1;align=center;verticalAlign=middle;resizable=0;points=[];autosize=1;strokeColor=none;fillColor=none;" parent="1" vertex="1">
          <mxGeometry x="-896" y="2497.12" width="130" height="20" as="geometry" />
        </mxCell>
        <mxCell id="MkebhDBpNGItt_J_HD5r-166" value="~(hit &amp;amp; valid) &amp;amp; ~dirty" style="text;html=1;align=center;verticalAlign=middle;resizable=0;points=[];autosize=1;strokeColor=none;fillColor=none;" parent="1" vertex="1">
          <mxGeometry x="-756" y="2547.12" width="130" height="20" as="geometry" />
        </mxCell>
        <mxCell id="MkebhDBpNGItt_J_HD5r-167" value="~(hit &amp;amp; valid) &amp;amp; dirty" style="text;html=1;align=center;verticalAlign=middle;resizable=0;points=[];autosize=1;strokeColor=none;fillColor=none;" parent="1" vertex="1">
          <mxGeometry x="-221" y="2457.12" width="120" height="20" as="geometry" />
        </mxCell>
        <mxCell id="MkebhDBpNGItt_J_HD5r-168" value="~(hit &amp;amp; valid) &amp;amp; dirty" style="text;html=1;align=center;verticalAlign=middle;resizable=0;points=[];autosize=1;strokeColor=none;fillColor=none;" parent="1" vertex="1">
          <mxGeometry x="-606" y="2457.12" width="120" height="20" as="geometry" />
        </mxCell>
        <mxCell id="MkebhDBpNGItt_J_HD5r-84" value="&lt;font color=&quot;#ff0000&quot;&gt;(hit0 &amp;amp; valid0)&lt;br&gt;| (hit1 &amp;amp; valid1)&lt;/font&gt;" style="text;html=1;align=center;verticalAlign=middle;resizable=0;points=[];autosize=1;strokeColor=none;fillColor=none;" parent="1" vertex="1">
          <mxGeometry x="-540" y="280.00000000000006" width="100" height="30" as="geometry" />
        </mxCell>
        <mxCell id="oqipzRdWBh-H7vpRaU9t-4" value="" style="endArrow=none;html=1;rounded=0;" parent="1" source="G9HL7FKv6nedQ7dIaKoP-7" target="MkebhDBpNGItt_J_HD5r-84" edge="1">
          <mxGeometry width="50" height="50" relative="1" as="geometry">
            <mxPoint x="-576.5608688071334" y="347.28585377362697" as="sourcePoint" />
            <mxPoint x="-394.74039838930685" y="242.77639907470802" as="targetPoint" />
          </mxGeometry>
        </mxCell>
        <mxCell id="3m1pLOnD8BQGqBd5gviU-1" value="err" style="ellipse;whiteSpace=wrap;html=1;" parent="1" vertex="1">
          <mxGeometry x="-440" y="2070" width="120" height="80" as="geometry" />
        </mxCell>
        <mxCell id="3m1pLOnD8BQGqBd5gviU-6" value="" style="endArrow=classic;html=1;rounded=0;entryX=0;entryY=1;entryDx=0;entryDy=0;exitX=0.703;exitY=0.042;exitDx=0;exitDy=0;exitPerimeter=0;" parent="1" source="MkebhDBpNGItt_J_HD5r-92" target="3m1pLOnD8BQGqBd5gviU-1" edge="1">
          <mxGeometry width="50" height="50" relative="1" as="geometry">
            <mxPoint x="-520" y="2252.5" as="sourcePoint" />
            <mxPoint x="-480" y="2212.5" as="targetPoint" />
          </mxGeometry>
        </mxCell>
        <mxCell id="3m1pLOnD8BQGqBd5gviU-7" value="" style="endArrow=classic;html=1;rounded=0;entryX=1;entryY=0;entryDx=0;entryDy=0;exitX=0.401;exitY=0.99;exitDx=0;exitDy=0;exitPerimeter=0;" parent="1" source="3m1pLOnD8BQGqBd5gviU-1" target="MkebhDBpNGItt_J_HD5r-92" edge="1">
          <mxGeometry width="50" height="50" relative="1" as="geometry">
            <mxPoint x="-560" y="2210" as="sourcePoint" />
            <mxPoint x="-510" y="2160" as="targetPoint" />
          </mxGeometry>
        </mxCell>
        <mxCell id="ubBGQjgHWbrzZHi7zzIe-1" value="miss_DONE&lt;br&gt;&lt;br&gt;valid_in = 1&lt;br&gt;done = 1&lt;br&gt;stall_out = 0" style="ellipse;whiteSpace=wrap;html=1;" parent="1" vertex="1">
          <mxGeometry x="94" y="90" width="260" height="190" as="geometry" />
        </mxCell>
        <mxCell id="ubBGQjgHWbrzZHi7zzIe-2" value="" style="endArrow=classic;html=1;rounded=0;exitX=0.317;exitY=0.046;exitDx=0;exitDy=0;exitPerimeter=0;entryX=0.5;entryY=0;entryDx=0;entryDy=0;" parent="1" source="ubBGQjgHWbrzZHi7zzIe-1" target="G9HL7FKv6nedQ7dIaKoP-1" edge="1">
          <mxGeometry width="50" height="50" relative="1" as="geometry">
            <mxPoint x="-150" y="10" as="sourcePoint" />
            <mxPoint x="-100" y="-40" as="targetPoint" />
            <Array as="points">
              <mxPoint x="-240" y="40" />
            </Array>
          </mxGeometry>
        </mxCell>
        <mxCell id="ubBGQjgHWbrzZHi7zzIe-3" value="miss_DONE&lt;br&gt;&lt;br&gt;&lt;br&gt;done = 1&lt;br&gt;stall_out = 0" style="ellipse;whiteSpace=wrap;html=1;" parent="1" vertex="1">
          <mxGeometry x="410" y="2137.5" width="260" height="190" as="geometry" />
        </mxCell>
        <mxCell id="ubBGQjgHWbrzZHi7zzIe-4" value="" style="endArrow=classic;html=1;rounded=0;" parent="1" source="ubBGQjgHWbrzZHi7zzIe-3" target="MkebhDBpNGItt_J_HD5r-92" edge="1">
          <mxGeometry width="50" height="50" relative="1" as="geometry">
            <mxPoint x="80" y="2120" as="sourcePoint" />
            <mxPoint x="130" y="2070" as="targetPoint" />
            <Array as="points">
              <mxPoint x="-10" y="2020" />
            </Array>
          </mxGeometry>
        </mxCell>
        <mxCell id="LjgCYKNR_oR0GR2C-WZB-1" value="" style="whiteSpace=wrap;html=1;aspect=fixed;" parent="1" vertex="1">
          <mxGeometry x="-1250" y="55" width="80" height="80" as="geometry" />
        </mxCell>
        <mxCell id="LjgCYKNR_oR0GR2C-WZB-2" value="&lt;span style=&quot;color: rgb(0, 0, 0); font-family: helvetica; font-size: 12px; font-style: normal; font-weight: 400; letter-spacing: normal; text-align: center; text-indent: 0px; text-transform: none; word-spacing: 0px; background-color: rgb(248, 249, 250); display: inline; float: none;&quot;&gt;vimtimway&lt;/span&gt;" style="text;whiteSpace=wrap;html=1;" parent="1" vertex="1">
          <mxGeometry x="-1460" y="120" width="80" height="30" as="geometry" />
        </mxCell>
        <mxCell id="LjgCYKNR_oR0GR2C-WZB-3" value="" style="verticalLabelPosition=bottom;shadow=0;dashed=0;align=center;html=1;verticalAlign=top;shape=mxgraph.electrical.logic_gates.logic_gate;operation=xor;" parent="1" vertex="1">
          <mxGeometry x="-1410" y="55" width="100" height="60" as="geometry" />
        </mxCell>
        <mxCell id="ViAGJ3zg1IFGqJZuWlJG-1" value="&amp;nbsp;" style="text;whiteSpace=wrap;html=1;" parent="1" vertex="1">
          <mxGeometry x="-220" y="2420" width="30" height="30" as="geometry" />
        </mxCell>
      </root>
    </mxGraphModel>
  </diagram>
</mxfile>
